<svg width="45" height="60" viewBox="0 0 45 60" fill="none" xmlns="http://www.w3.org/2000/svg">
<path d="M37.1921 5.22744C37.8834 3.62203 37.3679 1.74709 35.9502 0.715879C34.5326 -0.315335 32.5994 -0.221588 31.2754 0.926809L1.28192 27.1759C0.110303 28.2071 -0.311481 29.8594 0.239181 31.3125C0.789843 32.7655 2.19579 33.7499 3.75405 33.7499H16.8176L7.80786 54.7726C7.1166 56.378 7.63212 58.2529 9.04978 59.2841C10.4674 60.3153 12.4006 60.2216 13.7246 59.0732L43.7181 32.8241C44.8897 31.7929 45.3115 30.1406 44.7608 28.6875C44.2102 27.2345 42.8159 26.2619 41.2459 26.2619H28.1824L37.1921 5.22744Z" fill="white"/>
</svg>
