<svg width="82" height="65" viewBox="0 0 82 65" fill="none" xmlns="http://www.w3.org/2000/svg">
<g clip-path="url(#clip0_75_7)">
<path d="M4.715 24.375H77.2722C79.8731 24.375 81.9872 22.2803 81.9872 19.7031C81.9872 18.7764 81.7053 17.875 81.1928 17.1133L71.5194 2.7168C70.3791 1.01562 68.47 0 66.4072 0H15.5928C13.5428 0 11.6209 1.01562 10.4806 2.7168L0.794375 17.1006C0.281875 17.875 0 18.7764 0 19.6904C0 22.2803 2.11406 24.375 4.715 24.375ZM8.2 28.4375V48.75V58.9062C8.2 62.2705 10.9547 65 14.35 65H43.05C46.4453 65 49.2 62.2705 49.2 58.9062V48.75V28.4375H41V48.75H16.4V28.4375H8.2ZM65.6 28.4375V60.9375C65.6 63.1846 67.4322 65 69.7 65C71.9678 65 73.8 63.1846 73.8 60.9375V28.4375H65.6Z" fill="white"/>
</g>
<defs>
<clipPath id="clip0_75_7">
<rect width="82" height="65" fill="white"/>
</clipPath>
</defs>
</svg>
